HIERARCHY
ROOT mixamorig:Hips
{
	OFFSET 0.000000 201.639420 0.000000
	CHANNELS 6 Xposition Yposition Zposition Xrotation Yrotation Zrotation
	JOINT mixamorig:Spine
	{
		OFFSET 0.006200 19.524994 -2.481800
		CHANNELS 3 Xrotation Yrotation Zrotation
		JOINT mixamorig:Spine1
		{
			OFFSET -0.000900 22.835007 -2.825400
			CHANNELS 3 Xrotation Yrotation Zrotation
			JOINT mixamorig:Spine2
			{
				OFFSET -0.020600 26.552490 -3.193300
				CHANNELS 3 Xrotation Yrotation Zrotation
				JOINT mixamorig:Neck
				{
					OFFSET -0.060000 30.701813 1.352200
					CHANNELS 3 Xrotation Yrotation Zrotation
					JOINT mixamorig:Head
					{
						OFFSET -0.087200 22.547607 3.670900
						CHANNELS 3 Xrotation Yrotation Zrotation
						JOINT mixamorig:HeadTop_End
						{
							OFFSET -0.830600 40.355194 7.893500
							CHANNELS 3 Xrotation Yrotation Zrotation
							End Site
							{
								OFFSET 0.000000 30.592346 0.000000
							}
						}
						JOINT mixamorig:RightEye
						{
							OFFSET -6.302100 18.118591 16.197100
							CHANNELS 3 Xrotation Yrotation Zrotation
							End Site
							{
								OFFSET 0.000000 30.592346 0.000000
							}
						}
						JOINT mixamorig:LeftEye
						{
							OFFSET 6.741500 18.382690 16.401899
							CHANNELS 3 Xrotation Yrotation Zrotation
							End Site
							{
								OFFSET 0.000000 30.592346 0.000000
							}
						}
					}
				}
				JOINT mixamorig:LeftShoulder
				{
					OFFSET 11.924900 18.230499 1.425400
					CHANNELS 3 Xrotation Yrotation Zrotation
					JOINT mixamorig:LeftArm
					{
						OFFSET 25.435989 -0.697632 -5.229300
						CHANNELS 3 Xrotation Yrotation Zrotation
						JOINT mixamorig:LeftForeArm
						{
							OFFSET 54.684776 0.000000 0.000000
							CHANNELS 3 Xrotation Yrotation Zrotation
							JOINT mixamorig:LeftHand
							{
								OFFSET 55.098175 0.000000 0.000000
								CHANNELS 3 Xrotation Yrotation Zrotation
								JOINT mixamorig:LeftHandMiddle1
								{
									OFFSET 23.369751 0.000000 0.000000
									CHANNELS 3 Xrotation Yrotation Zrotation
									JOINT mixamorig:LeftHandMiddle2
									{
										OFFSET 6.378677 0.000000 0.000000
										CHANNELS 3 Xrotation Yrotation Zrotation
										JOINT mixamorig:LeftHandMiddle3
										{
											OFFSET 6.148331 0.000000 0.000000
											CHANNELS 3 Xrotation Yrotation Zrotation
											JOINT mixamorig:LeftHandMiddle4
											{
												OFFSET 6.582504 0.000000 0.000000
												CHANNELS 3 Xrotation Yrotation Zrotation
												End Site
												{
													OFFSET -1.168900 6.395691 1.028606
												}
											}
										}
									}
								}
								JOINT mixamorig:LeftHandThumb1
								{
									OFFSET 7.235672 -3.848206 5.434273
									CHANNELS 3 Xrotation Yrotation Zrotation
									JOINT mixamorig:LeftHandThumb2
									{
										OFFSET 6.568451 -3.792297 3.792300
										CHANNELS 3 Xrotation Yrotation Zrotation
										JOINT mixamorig:LeftHandThumb3
										{
											OFFSET 6.063080 -3.500519 3.500518
											CHANNELS 3 Xrotation Yrotation Zrotation
											JOINT mixamorig:LeftHandThumb4
											{
												OFFSET 4.793182 -2.767334 2.767349
												CHANNELS 3 Xrotation Yrotation Zrotation
												End Site
												{
													OFFSET 0.101639 6.054260 1.275483
												}
											}
										}
									}
								}
								JOINT mixamorig:LeftHandIndex1
								{
									OFFSET 23.101074 -0.309540 4.992809
									CHANNELS 3 Xrotation Yrotation Zrotation
									JOINT mixamorig:LeftHandIndex2
									{
										OFFSET 6.226883 0.000000 0.000000
										CHANNELS 3 Xrotation Yrotation Zrotation
										JOINT mixamorig:LeftHandIndex3
										{
											OFFSET 6.094330 0.000000 0.000000
											CHANNELS 3 Xrotation Yrotation Zrotation
											JOINT mixamorig:LeftHandIndex4
											{
												OFFSET 5.482605 0.000000 0.000000
												CHANNELS 3 Xrotation Yrotation Zrotation
												End Site
												{
													OFFSET -1.427902 5.233032 0.797164
												}
											}
										}
									}
								}
								JOINT mixamorig:LeftHandRing1
								{
									OFFSET 22.299240 0.021149 -3.964172
									CHANNELS 3 Xrotation Yrotation Zrotation
									JOINT mixamorig:LeftHandRing2
									{
										OFFSET 6.321869 0.000000 0.000000
										CHANNELS 3 Xrotation Yrotation Zrotation
										JOINT mixamorig:LeftHandRing3
										{
											OFFSET 5.899796 0.000000 0.000000
											CHANNELS 3 Xrotation Yrotation Zrotation
											JOINT mixamorig:LeftHandRing4
											{
												OFFSET 6.517899 0.000000 0.000000
												CHANNELS 3 Xrotation Yrotation Zrotation
												End Site
												{
													OFFSET -1.637299 6.232208 0.980890
												}
											}
										}
									}
								}
								JOINT mixamorig:LeftHandPinky1
								{
									OFFSET 20.463791 -0.302338 -8.562233
									CHANNELS 3 Xrotation Yrotation Zrotation
									JOINT mixamorig:LeftHandPinky2
									{
										OFFSET 6.908646 0.000000 0.000000
										CHANNELS 3 Xrotation Yrotation Zrotation
										JOINT mixamorig:LeftHandPinky3
										{
											OFFSET 4.622849 0.000000 0.000000
											CHANNELS 3 Xrotation Yrotation Zrotation
											JOINT mixamorig:LeftHandPinky4
											{
												OFFSET 5.216080 0.000000 0.000000
												CHANNELS 3 Xrotation Yrotation Zrotation
												End Site
												{
													OFFSET -0.606308 5.116241 0.814926
												}
											}
										}
									}
								}
							}
						}
					}
				}
				JOINT mixamorig:RightShoulder
				{
					OFFSET -12.001300 18.284088 1.348900
					CHANNELS 3 Xrotation Yrotation Zrotation
					JOINT mixamorig:RightArm
					{
						OFFSET -25.308500 -0.751312 -5.164599
						CHANNELS 3 Xrotation Yrotation Zrotation
						JOINT mixamorig:RightForeArm
						{
							OFFSET -54.684429 0.000000 0.000000
							CHANNELS 3 Xrotation Yrotation Zrotation
							JOINT mixamorig:RightHand
							{
								OFFSET -55.150291 0.000000 0.000000
								CHANNELS 3 Xrotation Yrotation Zrotation
								JOINT mixamorig:RightHandMiddle1
								{
									OFFSET -23.317566 0.000000 0.000000
									CHANNELS 3 Xrotation Yrotation Zrotation
									JOINT mixamorig:RightHandMiddle2
									{
										OFFSET -6.378403 0.000000 0.000000
										CHANNELS 3 Xrotation Yrotation Zrotation
										JOINT mixamorig:RightHandMiddle3
										{
											OFFSET -6.148193 0.000000 0.000000
											CHANNELS 3 Xrotation Yrotation Zrotation
											JOINT mixamorig:RightHandMiddle4
											{
												OFFSET -6.583389 0.000000 0.000000
												CHANNELS 3 Xrotation Yrotation Zrotation
												End Site
												{
													OFFSET 1.171692 6.395905 1.029786
												}
											}
										}
									}
								}
								JOINT mixamorig:RightHandThumb1
								{
									OFFSET -7.190521 -3.860474 5.435846
									CHANNELS 3 Xrotation Yrotation Zrotation
									JOINT mixamorig:RightHandThumb2
									{
										OFFSET -6.567429 -3.791718 3.791708
										CHANNELS 3 Xrotation Yrotation Zrotation
										JOINT mixamorig:RightHandThumb3
										{
											OFFSET -6.062469 -3.500153 3.500166
											CHANNELS 3 Xrotation Yrotation Zrotation
											JOINT mixamorig:RightHandThumb4
											{
												OFFSET -4.792618 -2.767029 2.767022
												CHANNELS 3 Xrotation Yrotation Zrotation
												End Site
												{
													OFFSET -0.100327 6.053253 1.276754
												}
											}
										}
									}
								}
								JOINT mixamorig:RightHandIndex1
								{
									OFFSET -23.048981 -0.310791 4.992554
									CHANNELS 3 Xrotation Yrotation Zrotation
									JOINT mixamorig:RightHandIndex2
									{
										OFFSET -6.227539 0.000000 0.000000
										CHANNELS 3 Xrotation Yrotation Zrotation
										JOINT mixamorig:RightHandIndex3
										{
											OFFSET -6.095047 0.000000 0.000000
											CHANNELS 3 Xrotation Yrotation Zrotation
											JOINT mixamorig:RightHandIndex4
											{
												OFFSET -5.484772 0.000000 0.000000
												CHANNELS 3 Xrotation Yrotation Zrotation
												End Site
												{
													OFFSET 1.420593 5.237305 0.797056
												}
											}
										}
									}
								}
								JOINT mixamorig:RightHandRing1
								{
									OFFSET -22.246323 0.020569 -3.963762
									CHANNELS 3 Xrotation Yrotation Zrotation
									JOINT mixamorig:RightHandRing2
									{
										OFFSET -6.322128 0.000000 0.000000
										CHANNELS 3 Xrotation Yrotation Zrotation
										JOINT mixamorig:RightHandRing3
										{
											OFFSET -5.900024 0.000000 0.000000
											CHANNELS 3 Xrotation Yrotation Zrotation
											JOINT mixamorig:RightHandRing4
											{
												OFFSET -6.518356 0.000000 0.000000
												CHANNELS 3 Xrotation Yrotation Zrotation
												End Site
												{
													OFFSET 1.636398 6.232697 0.982186
												}
											}
										}
									}
								}
								JOINT mixamorig:RightHandPinky1
								{
									OFFSET -20.411011 -0.303314 -8.561701
									CHANNELS 3 Xrotation Yrotation Zrotation
									JOINT mixamorig:RightHandPinky2
									{
										OFFSET -6.907349 0.000000 0.000000
										CHANNELS 3 Xrotation Yrotation Zrotation
										JOINT mixamorig:RightHandPinky3
										{
											OFFSET -4.623840 0.000000 0.000000
											CHANNELS 3 Xrotation Yrotation Zrotation
											JOINT mixamorig:RightHandPinky4
											{
												OFFSET -5.218353 0.000000 0.000000
												CHANNELS 3 Xrotation Yrotation Zrotation
												End Site
												{
													OFFSET 0.602097 5.118835 0.816273
												}
											}
										}
									}
								}
							}
						}
					}
				}
			}
		}
	}
	JOINT mixamorig:LeftUpLeg
	{
		OFFSET 18.168400 -13.561905 -0.039000
		CHANNELS 3 Xrotation Yrotation Zrotation
		JOINT mixamorig:LeftLeg
		{
			OFFSET 0.577358 -80.825211 -3.695000
			CHANNELS 3 Xrotation Yrotation Zrotation
			JOINT mixamorig:LeftFoot
			{
				OFFSET -0.577356 -83.370262 -6.520700
				CHANNELS 3 Xrotation Yrotation Zrotation
				JOINT mixamorig:LeftToeBase
				{
					OFFSET 0.750401 -20.798306 25.135401
					CHANNELS 3 Xrotation Yrotation Zrotation
					JOINT mixamorig:LeftToe_End
					{
						OFFSET -0.000500 0.001200 19.917799
						CHANNELS 3 Xrotation Yrotation Zrotation
						End Site
						{
							OFFSET 0.000000 19.917805 0.000000
						}
					}
				}
			}
		}
	}
	JOINT mixamorig:RightUpLeg
	{
		OFFSET -18.162500 -13.585098 -0.041000
		CHANNELS 3 Xrotation Yrotation Zrotation
		JOINT mixamorig:RightLeg
		{
			OFFSET -0.595024 -80.945297 -3.631900
			CHANNELS 3 Xrotation Yrotation Zrotation
			JOINT mixamorig:RightFoot
			{
				OFFSET 0.595024 -83.218193 -6.561200
				CHANNELS 3 Xrotation Yrotation Zrotation
				JOINT mixamorig:RightToeBase
				{
					OFFSET -0.753601 -20.807106 25.115000
					CHANNELS 3 Xrotation Yrotation Zrotation
					JOINT mixamorig:RightToe_End
					{
						OFFSET 0.000299 0.001700 19.918200
						CHANNELS 3 Xrotation Yrotation Zrotation
						End Site
						{
							OFFSET 0.000000 19.918203 0.000000
						}
					}
				}
			}
		}
	}
}
MOTION
Frames: 4
Frame Time: 0.033333
-4.829728 172.566620 199.603256 -10.909585 4.639870 0.170004 9.220631 3.381672 0.856776 3.598538 1.390375 0.255380 3.590905 1.407688 0.264707 7.482164 -2.715337 -1.248808 -9.466543 -16.289851 1.439721 0.000000 -0.000001 0.000000 0.000000 -0.000001 0.000000 0.000000 -0.000001 0.000000 8.834902 -7.195264 -7.444123 24.594733 2.222127 -44.083393 0.000020 -71.669148 0.000003 -12.892988 3.891932 4.524878 -0.351479 0.967039 -27.085067 0.512622 2.611543 -22.207073 0.020301 0.529336 -4.390689 0.000002 -0.000002 -0.000002 -5.339185 -5.205867 11.738990 9.746799 27.786690 -3.653381 2.497578 10.544777 0.736468 -0.000001 0.000000 0.000000 -0.525045 -0.635816 -17.456164 0.493161 2.563397 -21.775902 0.000331 0.067578 -0.559987 0.000000 0.000001 -0.000001 -2.396212 -1.657475 -33.310081 0.511483 2.608764 -22.182047 0.017337 0.489224 -4.057389 0.000003 -0.000001 -0.000001 2.373436 5.205676 -49.368542 0.131937 -2.682770 -11.953949 0.031788 0.662282 -5.496589 0.000001 -0.000002 0.000000 9.690788 -1.581509 9.640595 10.933746 15.904466 35.476324 0.000008 50.397265 -0.000019 5.093822 -11.092442 -4.941642 -0.008372 0.760694 0.651914 0.399476 -2.327089 19.478834 0.186086 -1.600998 13.258572 0.000003 -0.000000 -0.000002 -14.749216 0.037847 0.850567 3.943379 -6.690596 -0.341075 1.099101 -6.314268 -2.154701 0.000000 -0.000001 0.000000 0.692299 5.570860 -7.455443 0.267185 -1.912610 15.903366 0.150088 -1.439738 11.901850 0.000001 0.000001 -0.000002 1.213483 -5.992442 12.902831 0.012016 -0.409466 3.361904 0.084004 -1.079718 8.896610 -0.000000 0.000000 0.000005 1.915974 -9.903203 11.301063 0.245676 -1.835557 15.246253 0.150721 -1.442686 11.926665 -0.000001 0.000000 0.000001 -41.502097 3.517929 13.729147 56.614072 -9.473588 -1.887032 -3.603330 -2.990997 -1.816340 -2.457353 0.000000 -0.000001 -0.000000 0.000000 -0.000000 -40.112618 -8.462525 -9.806585 58.073970 -3.758973 -5.524141 -7.593147 -0.929066 6.357120 -1.991458 -0.000005 -0.000001 -0.000000 0.000001 -0.000000 
-4.411679 165.173553 206.238358 -12.244654 3.775889 -0.251037 10.149873 3.732770 1.007957 3.915617 1.548552 0.352662 3.905408 1.570249 0.366630 6.220313 -2.734290 -0.702077 -12.895368 -15.948425 1.553226 0.000000 -0.000001 -0.000000 0.000000 -0.000001 -0.000000 0.000000 -0.000001 -0.000000 8.573909 -7.235627 -7.114172 17.369735 3.603103 -50.998608 0.000012 -61.243158 0.000011 -9.636902 5.111664 6.653421 -0.351477 0.967037 -27.085079 0.512627 2.611550 -22.207054 0.020291 0.529333 -4.390698 -0.000002 -0.000001 -0.000001 -5.339194 -5.205865 11.738973 9.746799 27.786692 -3.653373 2.497579 10.544776 0.736459 0.000001 0.000000 -0.000005 -0.525042 -0.635827 -17.456186 0.493155 2.563400 -21.775920 0.000333 0.067577 -0.559992 0.000000 -0.000001 -0.000001 -2.396201 -1.657475 -33.310078 0.511477 2.608759 -22.182055 0.017335 0.489228 -4.057375 -0.000003 -0.000001 0.000002 2.373437 5.205670 -49.368556 0.131946 -2.682775 -11.953932 0.031786 0.662282 -5.496591 0.000001 -0.000001 0.000002 9.606216 -1.120999 9.174652 4.039688 19.142818 38.269195 0.000009 39.676425 -0.000002 -1.776397 -11.286241 -7.994549 -0.021114 0.538332 1.902902 0.416777 -2.375389 19.900501 0.182014 -1.583657 13.112355 -0.000002 0.000001 -0.000004 -14.399490 -0.433299 0.850591 4.062042 -7.026150 -0.321688 1.007103 -6.068482 -2.153755 -0.000002 0.000000 0.000002 0.559286 5.417506 -6.066416 0.298179 -2.018170 16.807238 0.142917 -1.405280 11.612851 0.000003 -0.000003 0.000001 1.285626 -5.986889 13.823354 0.017884 -0.499429 4.101877 0.078951 -1.047001 8.624840 0.000001 0.000001 0.000000 1.909398 -9.583566 11.725903 0.284631 -1.972808 16.418197 0.139297 -1.387536 11.464299 0.000001 -0.000000 -0.000001 -44.005529 3.004465 14.595001 68.469170 -9.558780 -0.087379 -12.928243 -3.457214 -1.834958 -0.319692 0.000002 -0.000000 0.000000 0.000000 -0.000000 -42.452822 -7.026892 -9.601504 69.144997 -4.176632 -5.671419 -14.672723 -1.565168 7.464709 -0.032879 -0.000001 -0.000004 -0.000000 0.000000 0.000000 
-4.385367 162.393982 211.656158 -11.812338 3.429648 -0.601884 10.749001 3.906127 1.078388 4.125811 1.621270 0.377294 4.114251 1.645572 0.394046 4.646807 -2.724623 -0.456624 -15.800009 -15.823581 1.989058 0.000000 -0.000000 0.000000 0.000000 -0.000000 0.000000 0.000000 -0.000000 0.000000 9.370644 -7.939471 -7.555054 8.294014 4.962678 -55.431544 0.000015 -51.170961 0.000025 -8.241172 8.663706 6.895238 -0.351470 0.967044 -27.085066 0.512621 2.611538 -22.207057 0.020289 0.529341 -4.390698 -0.000001 0.000001 -0.000001 -5.339190 -5.205857 11.738999 9.746803 27.786700 -3.653385 2.497573 10.544774 0.736467 0.000000 -0.000002 -0.000000 -0.525047 -0.635823 -17.456191 0.493156 2.563404 -21.775902 0.000328 0.067585 -0.559990 -0.000000 -0.000002 -0.000003 -2.396204 -1.657473 -33.310081 0.511482 2.608755 -22.182035 0.017330 0.489228 -4.057394 -0.000000 -0.000001 -0.000003 2.373437 5.205682 -49.368556 0.131949 -2.682781 -11.953953 0.031788 0.662282 -5.496596 0.000000 0.000000 -0.000002 9.482554 -0.880504 8.750513 -1.647016 23.255404 41.667576 0.000004 29.821408 -0.000003 -10.787377 -10.937149 -9.796310 -0.028001 0.269476 3.414136 0.438151 -2.433587 20.409939 0.177172 -1.562686 12.935714 -0.000006 0.000000 -0.000000 -13.976211 -1.001506 0.851341 4.205938 -7.431275 -0.297929 0.896113 -5.771435 -2.152462 0.000002 0.000001 0.000002 0.403674 5.227990 -4.389264 0.337854 -2.145030 17.899317 0.134470 -1.363593 11.263761 0.000001 0.000000 0.000000 1.370602 -5.979198 14.935371 0.026527 -0.608047 4.995833 0.073064 -1.007443 8.296538 -0.000001 0.000000 0.000003 1.895048 -9.198213 12.238669 0.335417 -2.137507 17.834326 0.126091 -1.320809 10.905708 0.000001 0.000000 -0.000000 -45.387714 3.118995 15.864127 73.699162 -9.300880 0.559298 -16.308142 -3.901137 -2.524523 -1.612925 -0.000000 -0.000003 0.000000 -0.000000 -0.000000 -42.963037 -6.300569 -9.249583 73.783897 -4.485193 -5.415973 -18.981265 -2.022348 8.107004 -1.064776 -0.000002 -0.000000 0.000000 0.000001 0.000000 
-4.646605 163.148376 215.900543 -10.268095 4.250151 -0.817999 10.961227 3.652607 1.127255 4.202215 1.511424 0.387538 4.191609 1.534982 0.404050 2.677122 -2.712743 -0.786143 -18.091098 -16.168519 2.497821 0.000000 0.000000 0.000000 0.000000 0.000000 0.000000 0.000000 0.000000 0.000000 10.845021 -8.961259 -8.433314 1.551989 3.773329 -56.723283 -0.000004 -46.115450 -0.000014 -9.941460 12.174506 5.761909 -0.351470 0.967038 -27.085071 0.512623 2.611547 -22.207090 0.020287 0.529336 -4.390709 0.000001 0.000001 0.000001 -5.339183 -5.205864 11.738990 9.746808 27.786704 -3.653390 2.497574 10.544772 0.736470 -0.000001 0.000001 -0.000002 -0.525044 -0.635821 -17.456183 0.493156 2.563398 -21.775932 0.000331 0.067577 -0.559992 -0.000000 0.000001 -0.000001 -2.396196 -1.657479 -33.310071 0.511479 2.608754 -22.182040 0.017329 0.489225 -4.057381 -0.000001 0.000000 0.000002 2.373436 5.205678 -49.368560 0.131944 -2.682780 -11.953961 0.031789 0.662282 -5.496579 0.000000 -0.000001 -0.000000 8.798494 -1.663097 7.843601 -4.085205 27.128152 45.272615 0.000001 24.859904 -0.000003 -14.660743 -10.391628 -6.216958 -0.024448 -0.037839 5.142230 0.463231 -2.499876 20.992585 0.171697 -1.538718 12.733682 0.000001 -0.000000 -0.000001 -13.491130 -1.649855 0.853164 4.371213 -7.894277 -0.270420 0.769365 -5.431623 -2.150801 -0.000001 -0.000000 0.000000 0.232697 5.005859 -2.472646 0.386174 -2.289124 19.148420 0.125134 -1.315901 10.864521 0.000001 0.000000 -0.000002 1.464849 -5.969187 16.206847 0.038478 -0.732050 6.018168 0.066620 -0.962145 7.921152 -0.000001 -0.000000 -0.000001 1.870062 -8.758735 12.824389 0.398478 -2.324251 19.454093 0.111788 -1.244337 10.267003 0.000003 -0.000000 0.000001 -45.791463 3.449890 16.792597 74.030549 -8.978349 0.348773 -17.644102 -5.385941 -2.432555 -3.384935 -0.000002 0.000000 -0.000000 -0.000001 -0.000000 -42.488425 -6.366910 -9.095884 73.933150 -5.211860 -5.143579 -20.959129 -2.316392 8.716332 -1.902350 0.000003 -0.000000 0.000000 0.000000 -0.000000 
